<?xml version="1.0" encoding="utf-8"?>
<!-- Generator: Adobe Illustrator 17.1.0, SVG Export Plug-In . SVG Version: 6.00 Build 0)  -->
<!DOCTYPE svg PUBLIC "-//W3C//DTD SVG 1.1//EN" "http://www.w3.org/Graphics/SVG/1.1/DTD/svg11.dtd">
<svg version="1.1" id="Capa_1" xmlns="http://www.w3.org/2000/svg" xmlns:xlink="http://www.w3.org/1999/xlink" x="0px" y="0px"
	 viewBox="1 1 15 15" enable-background="new 1 1 15 15" xml:space="preserve">
<g>
	<path fill="#000000" d="M15,1H2C1.4,1,1,1.4,1,2v13c0,0.6,0.4,1,1,1h13c0.6,0,1-0.4,1-1V2C16,1.4,15.6,1,15,1z M15,15H2V2h13V15z"
		/>
	<path fill="#000000" d="M4.5,9h8C12.8,9,13,8.8,13,8.5C13,8.2,12.8,8,12.5,8h-8C4.2,8,4,8.2,4,8.5C4,8.8,4.2,9,4.5,9z"/>
	<path fill="#000000" d="M4.5,6h8C12.8,6,13,5.8,13,5.5S12.8,5,12.5,5h-8C4.2,5,4,5.2,4,5.5S4.2,6,4.5,6z"/>
	<path fill="#000000" d="M4.5,12h8c0.3,0,0.5-0.2,0.5-0.5S12.8,11,12.5,11h-8C4.2,11,4,11.2,4,11.5S4.2,12,4.5,12z"/>
</g>
</svg>
